<mxfile host="app.diagrams.net" modified="2023-06-16T10:47:16.761Z" agent="Mozilla/5.0 (Windows NT 10.0; Win64; x64; rv:109.0) Gecko/20100101 Firefox/113.0" etag="IbtEv26xjQ3gaiq7BarX" version="21.2.3" type="device">
  <diagram name="Page-1" id="AOz80Axi8f9X3HhpPjZH">
    <mxGraphModel dx="1900" dy="530" grid="1" gridSize="10" guides="1" tooltips="1" connect="1" arrows="1" fold="1" page="1" pageScale="1" pageWidth="850" pageHeight="1100" math="0" shadow="0">
      <root>
        <mxCell id="0" />
        <mxCell id="1" parent="0" />
        <mxCell id="vk6cxziVxFLTkoY-YxC6-23" value="&lt;b&gt;&lt;font style=&quot;font-size: 16px;&quot;&gt;Clients&lt;/font&gt;&lt;/b&gt;" style="rounded=1;whiteSpace=wrap;html=1;dashed=1;fillColor=none;verticalAlign=top;horizontal=1;spacingTop=10;" vertex="1" parent="1">
          <mxGeometry x="-60" y="100" width="160" height="320" as="geometry" />
        </mxCell>
        <mxCell id="vk6cxziVxFLTkoY-YxC6-10" value="&lt;font style=&quot;font-size: 18px;&quot;&gt;Ethereum network&lt;/font&gt;" style="verticalLabelPosition=middle;verticalAlign=top;html=1;shape=mxgraph.basic.patternFillRect;fillStyle=diag;step=5;fillStrokeWidth=0.2;fillStrokeColor=#dddddd;spacingTop=20;fontStyle=1;labelPosition=center;align=center;fillColor=#f5f5f5;strokeColor=#666666;fontColor=#333333;" vertex="1" parent="1">
          <mxGeometry x="160" y="80" width="480" height="360" as="geometry" />
        </mxCell>
        <mxCell id="vk6cxziVxFLTkoY-YxC6-11" value="&lt;font size=&quot;1&quot;&gt;&lt;b style=&quot;font-size: 16px;&quot;&gt;The contract&lt;/b&gt;&lt;/font&gt;" style="swimlane;fontStyle=0;childLayout=stackLayout;horizontal=1;startSize=30;horizontalStack=0;resizeParent=1;resizeParentMax=0;resizeLast=0;collapsible=1;marginBottom=0;whiteSpace=wrap;html=1;fillColor=#dae8fc;strokeColor=#6c8ebf;" vertex="1" parent="1">
          <mxGeometry x="295" y="170" width="220" height="210" as="geometry" />
        </mxCell>
        <mxCell id="vk6cxziVxFLTkoY-YxC6-12" value="Read HS, C" style="text;strokeColor=#82b366;fillColor=#d5e8d4;align=left;verticalAlign=middle;spacingLeft=4;spacingRight=4;overflow=hidden;points=[[0,0.5],[1,0.5]];portConstraint=eastwest;rotatable=0;whiteSpace=wrap;html=1;" vertex="1" parent="vk6cxziVxFLTkoY-YxC6-11">
          <mxGeometry y="30" width="220" height="30" as="geometry" />
        </mxCell>
        <mxCell id="vk6cxziVxFLTkoY-YxC6-17" value="Read pending data to timestamp" style="text;align=left;verticalAlign=middle;spacingLeft=4;spacingRight=4;overflow=hidden;points=[[0,0.5],[1,0.5]];portConstraint=eastwest;rotatable=0;whiteSpace=wrap;html=1;fillColor=default;" vertex="1" parent="vk6cxziVxFLTkoY-YxC6-11">
          <mxGeometry y="60" width="220" height="30" as="geometry" />
        </mxCell>
        <mxCell id="vk6cxziVxFLTkoY-YxC6-13" value="Request timestamp" style="text;strokeColor=#82b366;fillColor=#d5e8d4;align=left;verticalAlign=middle;spacingLeft=4;spacingRight=4;overflow=hidden;points=[[0,0.5],[1,0.5]];portConstraint=eastwest;rotatable=0;whiteSpace=wrap;html=1;" vertex="1" parent="vk6cxziVxFLTkoY-YxC6-11">
          <mxGeometry y="90" width="220" height="30" as="geometry" />
        </mxCell>
        <mxCell id="vk6cxziVxFLTkoY-YxC6-14" value="Issue timestamp" style="text;align=left;verticalAlign=middle;spacingLeft=4;spacingRight=4;overflow=hidden;points=[[0,0.5],[1,0.5]];portConstraint=eastwest;rotatable=0;whiteSpace=wrap;html=1;fillColor=default;strokeColor=none;" vertex="1" parent="vk6cxziVxFLTkoY-YxC6-11">
          <mxGeometry y="120" width="220" height="30" as="geometry" />
        </mxCell>
        <mxCell id="vk6cxziVxFLTkoY-YxC6-15" value="Verify the chain at i-th position" style="text;strokeColor=#82b366;fillColor=#d5e8d4;align=left;verticalAlign=middle;spacingLeft=4;spacingRight=4;overflow=hidden;points=[[0,0.5],[1,0.5]];portConstraint=eastwest;rotatable=0;whiteSpace=wrap;html=1;" vertex="1" parent="vk6cxziVxFLTkoY-YxC6-11">
          <mxGeometry y="150" width="220" height="30" as="geometry" />
        </mxCell>
        <mxCell id="vk6cxziVxFLTkoY-YxC6-16" value="Set issuing permission" style="text;align=left;verticalAlign=middle;spacingLeft=4;spacingRight=4;overflow=hidden;points=[[0,0.5],[1,0.5]];portConstraint=eastwest;rotatable=0;whiteSpace=wrap;html=1;fillColor=default;strokeColor=none;" vertex="1" parent="vk6cxziVxFLTkoY-YxC6-11">
          <mxGeometry y="180" width="220" height="30" as="geometry" />
        </mxCell>
        <mxCell id="vk6cxziVxFLTkoY-YxC6-25" style="rounded=0;orthogonalLoop=1;jettySize=auto;html=1;exitX=0.5;exitY=0.5;exitDx=0;exitDy=0;exitPerimeter=0;entryX=0;entryY=0.5;entryDx=0;entryDy=0;startArrow=classic;startFill=1;endArrow=none;endFill=0;" edge="1" parent="1" source="vk6cxziVxFLTkoY-YxC6-18" target="vk6cxziVxFLTkoY-YxC6-12">
          <mxGeometry relative="1" as="geometry" />
        </mxCell>
        <mxCell id="vk6cxziVxFLTkoY-YxC6-18" value="" style="shape=umlActor;verticalLabelPosition=bottom;verticalAlign=top;html=1;outlineConnect=0;" vertex="1" parent="1">
          <mxGeometry x="40" y="150" width="30" height="60" as="geometry" />
        </mxCell>
        <mxCell id="vk6cxziVxFLTkoY-YxC6-28" style="edgeStyle=orthogonalEdgeStyle;rounded=0;orthogonalLoop=1;jettySize=auto;html=1;exitX=0.5;exitY=0.5;exitDx=0;exitDy=0;exitPerimeter=0;curved=1;startArrow=classic;startFill=1;" edge="1" parent="1" source="vk6cxziVxFLTkoY-YxC6-19" target="vk6cxziVxFLTkoY-YxC6-15">
          <mxGeometry relative="1" as="geometry">
            <Array as="points">
              <mxPoint x="170" y="265" />
              <mxPoint x="170" y="340" />
            </Array>
          </mxGeometry>
        </mxCell>
        <mxCell id="vk6cxziVxFLTkoY-YxC6-19" value="" style="shape=umlActor;verticalLabelPosition=bottom;verticalAlign=top;html=1;outlineConnect=0;" vertex="1" parent="1">
          <mxGeometry x="40" y="235" width="30" height="60" as="geometry" />
        </mxCell>
        <mxCell id="vk6cxziVxFLTkoY-YxC6-20" value="" style="shape=umlActor;verticalLabelPosition=bottom;verticalAlign=top;html=1;outlineConnect=0;" vertex="1" parent="1">
          <mxGeometry x="-30" y="280" width="30" height="60" as="geometry" />
        </mxCell>
        <mxCell id="vk6cxziVxFLTkoY-YxC6-21" value="" style="shape=umlActor;verticalLabelPosition=bottom;verticalAlign=top;html=1;outlineConnect=0;" vertex="1" parent="1">
          <mxGeometry x="-30" y="190" width="30" height="60" as="geometry" />
        </mxCell>
        <mxCell id="vk6cxziVxFLTkoY-YxC6-26" style="edgeStyle=orthogonalEdgeStyle;rounded=0;orthogonalLoop=1;jettySize=auto;html=1;exitX=0.5;exitY=0.5;exitDx=0;exitDy=0;exitPerimeter=0;entryX=0;entryY=0.5;entryDx=0;entryDy=0;curved=1;" edge="1" parent="1" source="vk6cxziVxFLTkoY-YxC6-22" target="vk6cxziVxFLTkoY-YxC6-13">
          <mxGeometry relative="1" as="geometry">
            <Array as="points">
              <mxPoint x="200" y="350" />
              <mxPoint x="200" y="275" />
            </Array>
          </mxGeometry>
        </mxCell>
        <mxCell id="vk6cxziVxFLTkoY-YxC6-22" value="" style="shape=umlActor;verticalLabelPosition=bottom;verticalAlign=top;html=1;outlineConnect=0;" vertex="1" parent="1">
          <mxGeometry x="40" y="320" width="30" height="60" as="geometry" />
        </mxCell>
        <mxCell id="vk6cxziVxFLTkoY-YxC6-29" value="&lt;b&gt;&lt;font style=&quot;font-size: 16px;&quot;&gt;Servers&lt;/font&gt;&lt;/b&gt;" style="rounded=1;whiteSpace=wrap;html=1;dashed=1;fillColor=none;verticalAlign=top;horizontal=1;spacingTop=10;" vertex="1" parent="1">
          <mxGeometry x="710" y="100" width="160" height="320" as="geometry" />
        </mxCell>
        <mxCell id="vk6cxziVxFLTkoY-YxC6-32" style="edgeStyle=orthogonalEdgeStyle;rounded=0;orthogonalLoop=1;jettySize=auto;html=1;entryX=1;entryY=0.5;entryDx=0;entryDy=0;curved=1;startArrow=classic;startFill=1;endArrow=none;endFill=0;" edge="1" parent="1" source="vk6cxziVxFLTkoY-YxC6-30" target="vk6cxziVxFLTkoY-YxC6-17">
          <mxGeometry relative="1" as="geometry">
            <Array as="points">
              <mxPoint x="630" y="210" />
              <mxPoint x="630" y="245" />
            </Array>
          </mxGeometry>
        </mxCell>
        <mxCell id="vk6cxziVxFLTkoY-YxC6-33" style="edgeStyle=orthogonalEdgeStyle;rounded=0;orthogonalLoop=1;jettySize=auto;html=1;curved=1;exitX=0;exitY=1;exitDx=0;exitDy=-15;exitPerimeter=0;" edge="1" parent="1" source="vk6cxziVxFLTkoY-YxC6-30" target="vk6cxziVxFLTkoY-YxC6-14">
          <mxGeometry relative="1" as="geometry">
            <Array as="points">
              <mxPoint x="650" y="235" />
              <mxPoint x="650" y="305" />
            </Array>
          </mxGeometry>
        </mxCell>
        <mxCell id="vk6cxziVxFLTkoY-YxC6-30" value="" style="shape=cylinder3;whiteSpace=wrap;html=1;boundedLbl=1;backgroundOutline=1;size=15;" vertex="1" parent="1">
          <mxGeometry x="760" y="170" width="60" height="80" as="geometry" />
        </mxCell>
        <mxCell id="vk6cxziVxFLTkoY-YxC6-34" style="edgeStyle=orthogonalEdgeStyle;rounded=0;orthogonalLoop=1;jettySize=auto;html=1;curved=1;" edge="1" parent="1" source="vk6cxziVxFLTkoY-YxC6-31" target="vk6cxziVxFLTkoY-YxC6-16">
          <mxGeometry relative="1" as="geometry" />
        </mxCell>
        <mxCell id="vk6cxziVxFLTkoY-YxC6-31" value="" style="shape=cylinder3;whiteSpace=wrap;html=1;boundedLbl=1;backgroundOutline=1;size=15;" vertex="1" parent="1">
          <mxGeometry x="760" y="295" width="60" height="80" as="geometry" />
        </mxCell>
      </root>
    </mxGraphModel>
  </diagram>
</mxfile>
